<svg width="80" height="81" viewBox="0 0 80 81" fill="none" xmlns="http://www.w3.org/2000/svg">
<mask id="mask0_143_101" style="mask-type:luminance" maskUnits="userSpaceOnUse" x="0" y="0" width="80" height="81">
<path d="M0 0.781982H80V80.782H0V0.781982Z" fill="white"/>
</mask>
<g mask="url(#mask0_143_101)">
<path d="M80 39.7452C80 34.4452 73.3633 29.4219 63.1867 26.3086C65.5367 15.9386 64.4933 7.68523 59.8933 5.0419C58.7784 4.4184 57.5171 4.10422 56.24 4.1319V7.76523C56.99 7.76523 57.5933 7.91523 58.1 8.1919C60.3167 9.46523 61.28 14.3052 60.53 20.5352C60.35 22.0686 60.0567 23.6819 59.6967 25.3286C56.2882 24.5102 52.8296 23.9167 49.3433 23.5519C47.2651 20.6871 44.999 17.9633 42.56 15.3986C47.8767 10.4586 52.8667 7.7519 56.26 7.7519V4.11523C51.7733 4.11523 45.9033 7.3119 39.9667 12.8552C34.0333 7.34857 28.16 4.1819 23.6767 4.1819V7.81523C27.0533 7.81523 32.06 10.5086 37.3767 15.4152C35.0933 17.8152 32.81 20.5352 30.64 23.5519C27.1463 23.9114 23.6815 24.5106 20.27 25.3452C19.8967 23.7141 19.6133 22.1386 19.42 20.6186C18.6533 14.3852 19.6 9.54523 21.8033 8.25857C22.29 7.96523 22.9267 7.8319 23.6767 7.8319V4.19857C22.31 4.19857 21.0667 4.4919 19.9933 5.10857C15.41 7.7519 14.3833 15.9852 16.7467 26.3252C6.60333 29.4586 0 34.4619 0 39.7452C0 45.0452 6.63667 50.0686 16.8133 53.1786C14.4633 63.5519 15.5067 71.8052 20.1067 74.4452C21.1667 75.0652 22.4067 75.3586 23.7733 75.3586C28.26 75.3586 34.13 72.1619 40.0667 66.6186C46 72.1286 51.87 75.2919 56.3567 75.2919C57.6433 75.3159 58.9136 75.0009 60.04 74.3786C64.6233 71.7386 65.65 63.5052 63.2867 53.1652C73.3967 50.0519 80 45.0286 80 39.7452ZM58.7667 28.8686C58.1334 31.0481 57.3993 33.1971 56.5667 35.3086C55.2061 32.6565 53.7097 30.0764 52.0833 27.5786C54.4033 27.9186 56.6322 28.3486 58.77 28.8686M51.3033 46.2352C50.0822 48.3667 48.771 50.4452 47.3733 52.4652C42.4808 52.8957 37.5602 52.9012 32.6667 52.4819C29.8604 48.4721 27.4058 44.2275 25.33 39.7952C27.401 35.3518 29.8454 31.0921 32.6367 27.0619C37.528 26.6306 42.4475 26.6239 47.34 27.0419C48.6956 28.9863 50.0111 31.053 51.2867 33.2419C52.5244 35.3775 53.6556 37.5397 54.68 39.7286C53.6433 41.9424 52.5168 44.1131 51.3033 46.2352ZM56.5667 44.1152C57.4467 46.3019 58.2 48.4852 58.8167 50.6052C56.6833 51.1286 54.43 51.5686 52.1 51.9086C53.7177 49.3868 55.2084 46.7857 56.5667 44.1152ZM40.0333 61.5152C38.5133 59.9463 37.0022 58.2063 35.5 56.2952C36.9667 56.3619 38.4667 56.4119 39.9833 56.4119C41.5189 56.4141 43.03 56.3752 44.5167 56.2952C43.05 58.2052 41.5333 59.9486 40.0333 61.5152ZM27.9 51.9086C25.6524 51.5835 23.4211 51.1541 21.2133 50.6219C21.8167 48.5186 22.5667 46.3486 23.4133 44.1819C24.0833 45.4819 24.7867 46.7886 25.5533 48.0952C26.32 49.3997 27.1022 50.6708 27.9 51.9086ZM39.95 17.9752C41.47 19.5441 42.9811 21.2841 44.4833 23.1952C43.0167 23.1286 41.5167 23.0786 40 23.0786C38.4644 23.0763 36.9533 23.1152 35.4667 23.1952C36.9333 21.2852 38.45 19.5419 39.95 17.9752ZM27.8833 27.5819C26.2661 30.0983 24.7754 32.6937 23.4167 35.3586C22.5609 33.2334 21.81 31.0674 21.1667 28.8686C23.3 28.3619 25.5533 27.9219 27.8833 27.5819ZM13.1267 47.9952C7.35333 45.5352 3.62 42.3052 3.62 39.7452C3.62 37.1852 7.35333 33.9386 13.1267 31.4952C14.5267 30.8919 16.06 30.3519 17.6433 29.8486C18.5733 33.0419 19.7967 36.3686 21.31 39.7786C19.8796 42.9852 18.6712 46.2863 17.6933 49.6586C16.145 49.1785 14.621 48.6234 13.1267 47.9952ZM21.9 71.2952C19.6833 70.0286 18.72 65.1819 19.47 58.9552C19.65 57.4219 19.9433 55.8052 20.3033 54.1586C23.4967 54.9419 26.9867 55.5452 30.6567 55.9386C32.7349 58.8034 35.001 61.5272 37.44 64.0919C32.1233 69.0319 27.1333 71.7386 23.74 71.7386C23.1003 71.7411 22.4693 71.5903 21.9 71.2986M60.58 58.8752C61.3467 65.1052 60.4 69.9486 58.1967 71.2352C57.71 71.5286 57.0733 71.6586 56.3233 71.6586C52.9467 71.6586 47.94 68.9686 42.6233 64.0586C45.0532 61.5055 47.3041 58.788 49.36 55.9252C52.8537 55.5657 56.3185 54.9665 59.73 54.1319C60.11 55.7763 60.3933 57.3575 60.58 58.8752ZM66.8567 47.9986C65.4567 48.6019 63.9233 49.1419 62.34 49.6452C61.3431 46.2563 60.1181 42.9388 58.6733 39.7152C60.1733 36.3252 61.3767 33.0152 62.29 29.8352C63.9078 30.3397 65.4356 30.8941 66.8733 31.4986C72.6467 33.9586 76.38 37.1886 76.38 39.7486C76.3633 42.3086 72.63 45.5552 66.8567 47.9986Z" fill="#9F9F9F"/>
<path d="M39.9834 47.1987C41.9601 47.1987 43.8559 46.4134 45.2537 45.0156C46.6514 43.6179 47.4367 41.7221 47.4367 39.7453C47.4367 37.7686 46.6514 35.8728 45.2537 34.475C43.8559 33.0773 41.9601 32.292 39.9834 32.292C38.0066 32.292 36.1108 33.0773 34.7131 34.475C33.3153 35.8728 32.53 37.7686 32.53 39.7453C32.53 41.7221 33.3153 43.6179 34.7131 45.0156C36.1108 46.4134 38.0066 47.1987 39.9834 47.1987Z" fill="#9F9F9F"/>
</g>
</svg>
