<svg width="23" height="23" viewBox="0 0 23 23" fill="none" xmlns="http://www.w3.org/2000/svg">
<path d="M11.5001 1.91663C10.2416 1.91663 8.9954 2.16451 7.8327 2.64611C6.66999 3.12772 5.61354 3.83362 4.72364 4.72352C2.92642 6.52074 1.91675 8.9583 1.91675 11.5C1.91675 15.7358 4.66716 19.3295 8.47175 20.6041C8.95091 20.6808 9.10425 20.3837 9.10425 20.125V18.5054C6.44966 19.0804 5.88425 17.2212 5.88425 17.2212C5.44341 16.1095 4.8205 15.8125 4.8205 15.8125C3.94841 15.2183 4.88758 15.2375 4.88758 15.2375C5.84591 15.3045 6.35383 16.2245 6.35383 16.2245C7.18758 17.6812 8.59633 17.25 9.14258 17.02C9.22883 16.397 9.478 15.9754 9.74633 15.7358C7.61883 15.4962 5.38591 14.672 5.38591 11.0208C5.38591 9.95704 5.75008 9.10413 6.373 8.42371C6.27716 8.18413 5.94175 7.18746 6.46883 5.89371C6.46883 5.89371 7.27383 5.63496 9.10425 6.87121C9.86133 6.66038 10.6855 6.55496 11.5001 6.55496C12.3147 6.55496 13.1388 6.66038 13.8959 6.87121C15.7263 5.63496 16.5313 5.89371 16.5313 5.89371C17.0584 7.18746 16.723 8.18413 16.6272 8.42371C17.2501 9.10413 17.6142 9.95704 17.6142 11.0208C17.6142 14.6816 15.3717 15.4866 13.2347 15.7262C13.5797 16.0233 13.8959 16.6079 13.8959 17.4991V20.125C13.8959 20.3837 14.0492 20.6904 14.538 20.6041C18.3426 19.32 21.0834 15.7358 21.0834 11.5C21.0834 10.2415 20.8355 8.99528 20.3539 7.83258C19.8723 6.66987 19.1664 5.61341 18.2765 4.72352C17.3866 3.83362 16.3302 3.12772 15.1675 2.64611C14.0048 2.16451 12.7586 1.91663 11.5001 1.91663Z" fill="#9F9F9F"/>
</svg>

