<svg width="80" height="80" viewBox="0 0 80 80" fill="none" xmlns="http://www.w3.org/2000/svg">
<path d="M66.6666 42.4487V41.5581C66.6666 37.6327 63.4826 34.4487 59.5573 34.4487H53.3333C51.2116 34.4487 49.1767 35.2916 47.6764 36.7919C46.1761 38.2922 45.3333 40.327 45.3333 42.4487C45.3333 44.5705 46.1761 46.6053 47.6764 48.1056C49.1767 49.6059 51.2116 50.4487 53.3333 50.4487H58.6666C60.7884 50.4487 62.8232 51.2916 64.3235 52.7919C65.8238 54.2922 66.6666 56.327 66.6666 58.4487C66.6666 60.5705 65.8238 62.6053 64.3235 64.1056C62.8232 65.6059 60.7884 66.4487 58.6666 66.4487H53.3333C51.2116 66.4487 49.1767 65.6059 47.6764 64.1056C46.1761 62.6053 45.3333 60.5705 45.3333 58.4487M34.6666 31.7821V58.4487C34.6666 60.5705 33.8238 62.6053 32.3235 64.1056C30.8232 65.6059 28.7884 66.4487 26.6666 66.4487C24.5449 66.4487 22.5101 65.6059 21.0098 64.1056C19.5095 62.6053 18.6666 60.5705 18.6666 58.4487M2.66663 2.44873H77.3333V77.1154H2.66663V2.44873Z" stroke="#9F9F9F" stroke-width="4"/>
</svg>
