<svg width="22" height="23" viewBox="0 0 22 23" fill="none" xmlns="http://www.w3.org/2000/svg">
<path fill-rule="evenodd" clip-rule="evenodd" d="M7.94478 9.13229C7.63384 9.13229 7.32595 9.19353 7.03868 9.31252C6.75141 9.43152 6.49039 9.60592 6.27053 9.82579C6.05066 10.0457 5.87625 10.3067 5.75726 10.5939C5.63827 10.8812 5.57703 11.1891 5.57703 11.5C5.57703 11.811 5.63827 12.1189 5.75726 12.4061C5.87625 12.6934 6.05066 12.9544 6.27053 13.1743C6.49039 13.3942 6.75141 13.5686 7.03868 13.6876C7.32595 13.8065 7.63384 13.8678 7.94478 13.8678H10.3125V9.13229H7.94478ZM10.3125 7.75729H7.94478C7.31669 7.75729 6.71433 7.50778 6.2702 7.06366C5.82608 6.61953 5.57657 6.01717 5.57657 5.38908C5.57657 4.76099 5.82608 4.15863 6.2702 3.71451C6.71433 3.27038 7.31669 3.02087 7.94478 3.02087H10.3125V7.75729ZM11.6875 3.02087V7.75729H14.0553C14.6753 7.74509 15.2658 7.49022 15.7 7.04743C16.1341 6.60463 16.3774 6.00922 16.3774 5.38908C16.3774 4.76894 16.1341 4.17353 15.7 3.73074C15.2658 3.28794 14.6753 3.03307 14.0553 3.02087H11.6875ZM14.0553 9.13137C13.4338 9.1313 12.8372 9.37559 12.3942 9.81153C11.9512 10.2475 11.6974 10.8401 11.6875 11.4615V11.5376C11.6951 12.0042 11.8404 12.4581 12.1051 12.8424C12.3699 13.2267 12.7423 13.5242 13.1755 13.6975C13.6088 13.8708 14.0836 13.9122 14.5404 13.8166C14.9971 13.7209 15.4154 13.4924 15.7427 13.1598C16.07 12.8272 16.2917 12.4053 16.38 11.9471C16.4682 11.4889 16.4192 11.0148 16.2389 10.5844C16.0586 10.1539 15.7551 9.7864 15.3666 9.52789C14.9781 9.26938 14.5219 9.13144 14.0553 9.13137ZM7.94478 15.2428C7.47626 15.2426 7.01821 15.3814 6.62857 15.6415C6.23892 15.9017 5.93518 16.2716 5.75576 16.7044C5.57634 17.1372 5.52931 17.6135 5.6206 18.073C5.71189 18.5325 5.93741 18.9547 6.26864 19.286C6.59987 19.6174 7.02192 19.8431 7.48142 19.9345C7.94092 20.026 8.41723 19.9792 8.8501 19.7999C9.28297 19.6207 9.65296 19.3171 9.91327 18.9275C10.1736 18.538 10.3125 18.08 10.3125 17.6115V15.2428H7.94478Z" fill="#9F9F9F"/>
</svg>
