<svg width="38" height="34" viewBox="0 0 38 34" fill="none" xmlns="http://www.w3.org/2000/svg">
<path d="M37.75 7C37.75 6.5 37.5 6.125 37.125 5.875L28.375 0.875C28.125 0.75 28 0.75 27.75 0.75C27.5 0.75 27.375 0.75 27.125 0.875L19 5.5L10.875 0.875C10.625 0.75 10.5 0.75 10.25 0.75C10 0.75 9.875 0.75 9.625 0.875L0.875 5.875C0.5 6.125 0.25 6.5 0.25 7V32C0.25 32.75 0.75 33.25 1.5 33.25C1.75 33.25 1.875 33.125 2.125 33.125L10.25 28.5L18.375 33.125C18.625 33.25 18.75 33.25 19 33.25C19.25 33.25 19.375 33.25 19.625 33.125L27.75 28.5L35.875 33.125C36 33.25 36.25 33.25 36.5 33.25C37.25 33.25 37.75 32.75 37.75 32V7ZM2.75 7.75L9 4.125V26.25L2.75 29.875V7.75ZM17.75 29.875L11.5 26.25V4.125L17.75 7.75V29.875ZM26.5 26.25L20.25 29.875V7.75L26.5 4.125V26.25ZM29 26.25V4.125L35.25 7.75V29.875L29 26.25Z" fill="#FFC763"/>
</svg>
