<svg width="60" height="60" viewBox="0 0 60 60" fill="none" xmlns="http://www.w3.org/2000/svg">
<path d="M30 52.5C26.9033 52.5 23.9867 51.9083 21.25 50.725C18.5133 49.54 16.13 47.9317 14.1 45.9C12.07 43.8683 10.4617 41.485 9.27501 38.75C8.08835 36.015 7.49668 33.0983 7.50001 30C7.50001 26.8933 8.09168 23.9717 9.27501 21.235C10.46 18.4983 12.0683 16.1092 14.1 14.0675C16.1317 12.0258 18.515 10.4208 21.25 9.2525C23.985 8.08417 26.9017 7.5 30 7.5C33.1067 7.5 36.0283 8.08417 38.765 9.2525C41.5017 10.4208 43.8908 12.0258 45.9325 14.0675C47.9742 16.1092 49.5792 18.4983 50.7475 21.235C51.9158 23.9717 52.5 26.8933 52.5 30C52.5 33.0967 51.9158 36.0133 50.7475 38.75C49.5792 41.4867 47.9742 43.87 45.9325 45.9C43.8908 47.93 41.5017 49.5383 38.765 50.725C36.0283 51.9117 33.1067 52.5033 30 52.5ZM30 50C35.5833 50 40.315 48.05 44.195 44.15C48.075 40.25 50.01 35.5242 50 29.9725V29.2725C50 29.0658 49.9833 28.85 49.95 28.625C47.5067 28.43 45.525 27.575 44.005 26.06C42.485 24.5467 41.2267 22.7925 40.23 20.7975C39.895 20.1475 39.4408 19.6442 38.8675 19.2875C38.2958 18.9292 37.6525 18.75 36.9375 18.75H23.125C22.3683 18.75 21.7042 18.9292 21.1325 19.2875C20.5608 19.6442 20.1067 20.1475 19.77 20.7975C18.7717 22.8325 17.5083 24.6075 15.98 26.1225C14.4517 27.6375 12.475 28.4925 10.05 28.6875C10.0167 28.9125 10 29.1292 10 29.3375V29.9875C10 35.5375 11.9483 40.2608 15.845 44.1575C19.7417 48.0542 24.46 50.0017 30 50ZM22.5 35.625C21.625 35.625 20.885 35.3225 20.28 34.7175C19.675 34.1125 19.3733 33.3733 19.375 32.5C19.3767 31.6267 19.6792 30.8867 20.2825 30.28C20.8858 29.6733 21.625 29.3717 22.5 29.375C23.375 29.3783 24.115 29.6808 24.72 30.2825C25.325 30.8842 25.6267 31.6233 25.625 32.5C25.6233 33.3767 25.3208 34.1167 24.7175 34.72C24.1142 35.3233 23.375 35.625 22.5 35.625ZM37.5 35.625C36.625 35.625 35.885 35.3225 35.28 34.7175C34.675 34.1125 34.3733 33.3733 34.375 32.5C34.3767 31.6267 34.6792 30.8867 35.2825 30.28C35.8858 29.6733 36.625 29.3717 37.5 29.375C38.375 29.3783 39.115 29.6808 39.72 30.2825C40.325 30.8842 40.6267 31.6233 40.625 32.5C40.6233 33.3767 40.3208 34.1167 39.7175 34.72C39.1142 35.3233 38.375 35.625 37.5 35.625Z" fill="white"/>
</svg>
